<svg xmlns="http://www.w3.org/2000/svg" viewBox="0 0 1024 1024">
  <defs>
    <linearGradient id="bg" x1="0" y1="0" x2="1" y2="1">
      <stop offset="0%" stop-color="#fb923c"/>
      <stop offset="100%" stop-color="#ea580c"/>
    </linearGradient>
  </defs>
  <rect width="1024" height="1024" rx="220" fill="url(#bg)"/>
  <!-- 学士帽 -->
  <g transform="translate(220,150)">
    <rect x="0" y="80" width="600" height="36" rx="10" fill="#1f1d1c"/>
    <polygon points="300,0 600,70 300,140 0,70" fill="#1f1d1c"/>
    <line x1="570" y1="80" x2="640" y2="280" stroke="#1f1d1c" stroke-width="18"/>
    <circle cx="640" cy="288" r="32" fill="#fde047"/>
  </g>
  <!-- 头 -->
  <ellipse cx="512" cy="600" rx="320" ry="290" fill="#fff" stroke="#1f1d1c" stroke-width="14"/>
  <!-- 耳朵 -->
  <ellipse cx="240" cy="380" rx="86" ry="92" fill="#1f1d1c"/>
  <ellipse cx="784" cy="380" rx="86" ry="92" fill="#1f1d1c"/>
  <!-- 眼周 -->
  <ellipse cx="376" cy="556" rx="84" ry="108" fill="#1f1d1c" transform="rotate(-8 376 556)"/>
  <ellipse cx="648" cy="556" rx="84" ry="108" fill="#1f1d1c" transform="rotate(8 648 556)"/>
  <!-- 眼睛 -->
  <circle cx="388" cy="564" r="28" fill="#fff"/>
  <circle cx="636" cy="564" r="28" fill="#fff"/>
  <circle cx="396" cy="568" r="10" fill="#1f1d1c"/>
  <circle cx="628" cy="568" r="10" fill="#1f1d1c"/>
  <!-- 鼻子 -->
  <ellipse cx="512" cy="660" rx="32" ry="22" fill="#1f1d1c"/>
  <!-- 嘴 -->
  <path d="M 464 712 Q 512 758 560 712" stroke="#1f1d1c" stroke-width="14" fill="none" stroke-linecap="round"/>
  <!-- 腮红 -->
  <circle cx="306" cy="700" r="36" fill="#fdba74" opacity="0.55"/>
  <circle cx="718" cy="700" r="36" fill="#fdba74" opacity="0.55"/>
  <!-- 书本 -->
  <g transform="translate(322,800)">
    <rect x="0" y="0" width="380" height="120" rx="14" fill="#fff" stroke="#1f1d1c" stroke-width="10"/>
    <line x1="190" y1="10" x2="190" y2="110" stroke="#1f1d1c" stroke-width="8"/>
    <line x1="30" y1="40" x2="160" y2="40" stroke="#9c9590" stroke-width="6"/>
    <line x1="30" y1="70" x2="160" y2="70" stroke="#9c9590" stroke-width="6"/>
    <line x1="220" y1="40" x2="350" y2="40" stroke="#9c9590" stroke-width="6"/>
    <line x1="220" y1="70" x2="350" y2="70" stroke="#9c9590" stroke-width="6"/>
  </g>
</svg>
