<svg xmlns="http://www.w3.org/2000/svg" viewBox="0 0 2732 2732">
  <defs>
    <linearGradient id="bg" x1="0" y1="0" x2="0" y2="1">
      <stop offset="0%" stop-color="#fff7ed"/>
      <stop offset="100%" stop-color="#fffdf8"/>
    </linearGradient>
  </defs>
  <rect width="2732" height="2732" fill="url(#bg)"/>
  <g transform="translate(1366,1200) scale(1.5) translate(-512,-512)">
    <g transform="translate(220,150)">
      <rect x="0" y="80" width="600" height="36" rx="10" fill="#1f1d1c"/>
      <polygon points="300,0 600,70 300,140 0,70" fill="#1f1d1c"/>
      <line x1="570" y1="80" x2="640" y2="280" stroke="#1f1d1c" stroke-width="18"/>
      <circle cx="640" cy="288" r="32" fill="#fb923c"/>
    </g>
    <ellipse cx="512" cy="600" rx="320" ry="290" fill="#fff" stroke="#1f1d1c" stroke-width="14"/>
    <ellipse cx="240" cy="380" rx="86" ry="92" fill="#1f1d1c"/>
    <ellipse cx="784" cy="380" rx="86" ry="92" fill="#1f1d1c"/>
    <ellipse cx="376" cy="556" rx="84" ry="108" fill="#1f1d1c" transform="rotate(-8 376 556)"/>
    <ellipse cx="648" cy="556" rx="84" ry="108" fill="#1f1d1c" transform="rotate(8 648 556)"/>
    <circle cx="388" cy="564" r="28" fill="#fff"/>
    <circle cx="636" cy="564" r="28" fill="#fff"/>
    <circle cx="396" cy="568" r="10" fill="#1f1d1c"/>
    <circle cx="628" cy="568" r="10" fill="#1f1d1c"/>
    <ellipse cx="512" cy="660" rx="32" ry="22" fill="#1f1d1c"/>
    <path d="M 464 712 Q 512 758 560 712" stroke="#1f1d1c" stroke-width="14" fill="none" stroke-linecap="round"/>
    <circle cx="306" cy="700" r="36" fill="#fdba74" opacity="0.55"/>
    <circle cx="718" cy="700" r="36" fill="#fdba74" opacity="0.55"/>
    <g transform="translate(322,800)">
      <rect x="0" y="0" width="380" height="120" rx="14" fill="#fff" stroke="#1f1d1c" stroke-width="10"/>
      <line x1="190" y1="10" x2="190" y2="110" stroke="#1f1d1c" stroke-width="8"/>
      <line x1="30" y1="40" x2="160" y2="40" stroke="#9c9590" stroke-width="6"/>
      <line x1="30" y1="70" x2="160" y2="70" stroke="#9c9590" stroke-width="6"/>
      <line x1="220" y1="40" x2="350" y2="40" stroke="#9c9590" stroke-width="6"/>
      <line x1="220" y1="70" x2="350" y2="70" stroke="#9c9590" stroke-width="6"/>
    </g>
  </g>
  <text x="1366" y="2200" text-anchor="middle" font-family="PingFang SC, Hiragino Sans GB, Microsoft YaHei, sans-serif" font-size="120" font-weight="800" fill="#1f1d1c">学海小书院</text>
  <text x="1366" y="2350" text-anchor="middle" font-family="PingFang SC, sans-serif" font-size="68" fill="#9c9590" letter-spacing="20">你 的 学 习 陪 伴 ～</text>
</svg>
