<svg xmlns="http://www.w3.org/2000/svg" viewBox="0 0 2732 2732">
  <defs>
    <linearGradient id="bg" x1="0" y1="0" x2="0" y2="1">
      <stop offset="0%" stop-color="#fff7ed"/>
      <stop offset="100%" stop-color="#fffdf8"/>
    </linearGradient>
  </defs>
  <rect width="2732" height="2732" fill="url(#bg)"/>
  <g transform="translate(1366,1200) scale(1.5) translate(-512,-512)">
    <!-- 学士帽 -->
    <g transform="translate(220,150)">
      <rect x="0" y="80" width="600" height="36" rx="10" fill="#1f1d1c"/>
      <polygon points="300,0 600,70 300,140 0,70" fill="#1f1d1c"/>
      <line x1="570" y1="80" x2="640" y2="280" stroke="#1f1d1c" stroke-width="18"/>
      <circle cx="640" cy="288" r="32" fill="#fb923c"/>
    </g>
    <ellipse cx="512" cy="640" rx="320" ry="300" fill="#a98064" stroke="#1f1d1c" stroke-width="14"/>
    <ellipse cx="512" cy="700" rx="210" ry="230" fill="#fde7c0"/>
    <path d="M 248 600 Q 180 700 250 850 Q 320 800 340 700 Z" fill="#8a6047" stroke="#1f1d1c" stroke-width="12"/>
    <path d="M 776 600 Q 844 700 774 850 Q 704 800 684 700 Z" fill="#8a6047" stroke="#1f1d1c" stroke-width="12"/>
    <path d="M 360 380 L 396 296 L 444 388 Z" fill="#a98064" stroke="#1f1d1c" stroke-width="12"/>
    <path d="M 664 380 L 628 296 L 580 388 Z" fill="#a98064" stroke="#1f1d1c" stroke-width="12"/>
    <ellipse cx="388" cy="528" rx="132" ry="142" fill="#fff8ec" stroke="#1f1d1c" stroke-width="12"/>
    <ellipse cx="636" cy="528" rx="132" ry="142" fill="#fff8ec" stroke="#1f1d1c" stroke-width="12"/>
    <circle cx="388" cy="528" r="66" fill="#1f1d1c"/>
    <circle cx="636" cy="528" r="66" fill="#1f1d1c"/>
    <circle cx="412" cy="500" r="22" fill="#fff"/>
    <circle cx="660" cy="500" r="22" fill="#fff"/>
    <path d="M 472 624 L 512 688 L 552 624 Z" fill="#f97316" stroke="#1f1d1c" stroke-width="10" stroke-linejoin="round"/>
    <circle cx="280" cy="680" r="30" fill="#fdba74" opacity="0.55"/>
    <circle cx="744" cy="680" r="30" fill="#fdba74" opacity="0.55"/>
  </g>
  <text x="1366" y="2200" text-anchor="middle" font-family="PingFang SC, Hiragino Sans GB, Microsoft YaHei, sans-serif" font-size="120" font-weight="800" fill="#1f1d1c">学海小书院</text>
  <text x="1366" y="2350" text-anchor="middle" font-family="PingFang SC, sans-serif" font-size="68" fill="#9c9590" letter-spacing="20">你 的 学 习 陪 伴 ～</text>
</svg>
